<svg width="12" height="8" viewBox="0 0 12 8" fill="none" xmlns="http://www.w3.org/2000/svg">
<path fill-rule="evenodd" clip-rule="evenodd" d="M7.71985 0.794318C7.8605 0.662924 8.05123 0.589111 8.25011 0.589111C8.44899 0.589111 8.63972 0.662924 8.78037 0.794318L11.7804 3.59782C11.921 3.72926 12 3.9075 12 4.09334C12 4.27919 11.921 4.45743 11.7804 4.58886L8.78037 7.39237C8.63891 7.52004 8.44946 7.59068 8.25281 7.58908C8.05616 7.58749 7.86805 7.51378 7.72899 7.38383C7.58993 7.25388 7.51105 7.07809 7.50935 6.89433C7.50764 6.71056 7.58323 6.53351 7.71985 6.40133L9.43963 4.79422L0.75001 4.79422C0.551095 4.79422 0.360327 4.72038 0.219673 4.58894C0.0790187 4.4575 0 4.27923 0 4.09334C0 3.90746 0.0790187 3.72919 0.219673 3.59775C0.360327 3.46631 0.551095 3.39247 0.75001 3.39247L9.43963 3.39247L7.71985 1.78536C7.57925 1.65392 7.50026 1.47569 7.50026 1.28984C7.50026 1.10399 7.57925 0.925752 7.71985 0.794318Z" fill="white"/>
</svg>
